<svg width="201" height="33" viewBox="0 0 201 33" fill="none" xmlns="http://www.w3.org/2000/svg">
<path d="M20.9339 9.69781L14.2438 32.5307L12.5635 31.9544L2.55981 4.57862C1.8217 2.56146 0 2.00207 0 2.00207V0.832458H2.65404C5.38659 0.832458 7.12978 0.645996 7.12978 0.645996L7.30252 0.832458C6.83139 1.95122 6.56442 3.78192 7.03555 5.138L13.3016 23.2416C13.6 24.14 13.9141 25.3435 14.1339 26.2419L19.866 6.73139L19.1279 4.57862C18.3741 2.56146 16.5524 2.00207 16.5524 2.00207V0.832458H19.2064C21.939 0.832458 23.6822 0.645996 23.6822 0.645996L23.8549 0.832458C23.3838 1.95122 23.1168 3.78192 23.5879 5.138L29.7126 23.3264C29.9796 24.1739 30.278 25.2927 30.4978 26.1911L36.4027 6.0703C37.0466 3.86668 36.5754 2.69706 34.314 1.98512V0.815506H40.9098L41.0826 1.47659C41.0826 1.47659 39.5593 2.32414 38.2558 6.49408L30.6235 32.5307L28.9274 31.9714L20.9339 9.69781Z" fill="white"/>
<path d="M59.4253 0.273438C68.5024 0.273438 74.2816 6.88431 74.2816 15.3767C74.2816 24.3268 67.937 32.6837 58.3417 32.6837C49.4373 32.6837 43.6581 25.4117 43.6581 16.8854C43.6581 8.42685 49.2646 0.273438 59.4253 0.273438ZM59.2054 30.7852C66.0211 30.7852 69.9786 23.3776 69.9786 16.5294C69.9786 9.49476 65.8955 2.13804 58.6872 2.13804C51.9186 2.13804 47.9611 8.74891 47.9611 15.648C47.9611 22.6317 52.0442 30.7852 59.2054 30.7852Z" fill="white"/>
<path d="M78.2705 30.734C80.1864 30.4967 81.3957 29.4288 81.3957 27.8354V5.42623C81.3957 3.17175 81.1758 2.71407 77.8308 2.00213V0.83252H87.913C95.7337 0.83252 98.6862 4.30747 98.6862 8.37569C98.6862 12.7829 95.0428 15.7833 92.9541 16.9529V17.5631L99.2044 27.4625C101.073 30.3611 101.937 30.4628 103.068 30.5645L103.539 30.6153L103.366 32.124H97.0686L96.8959 31.9884C96.8959 31.9884 95.985 29.6491 94.2104 26.8353L88.8238 18.2581H85.6515L85.2118 18.7327V27.8693C85.2118 29.2254 84.992 30.2594 84.992 30.2594L88.9023 30.6831L88.7296 31.9884L78.2548 32.2765V30.734H78.2705ZM88.8709 16.3935C91.4779 16.3935 94.4774 14.139 94.4774 9.59616C94.4774 6.03646 92.6086 2.66322 87.2691 2.66322H85.6672L85.2275 3.13785V16.4104H88.8709V16.3935Z" fill="white"/>
<path d="M105.549 30.734C107.496 30.4967 108.674 29.5135 108.674 27.8354V5.42623C108.674 3.17175 108.454 2.71407 105.109 2.00213V0.83252H117.013C125.446 0.83252 133.566 4.25661 133.566 15.3256C133.566 25.9199 126.232 32.107 115.364 32.107H111.846C109.679 32.107 105.549 32.2426 105.549 32.2426V30.734ZM115.364 30.2763C125.525 30.2763 129.263 24.174 129.263 16.3935C129.263 8.08753 124.96 2.66322 116.84 2.66322H112.93L112.49 3.13785V27.6489C112.49 29.0559 112.27 30.2763 112.27 30.2763H115.364Z" fill="white"/>
<path d="M138.512 23.6657H139.989C139.989 29.3781 143.334 30.8868 146.286 30.8868C149.113 30.8868 151.798 29.5815 151.798 25.971C151.798 17.8176 138.198 17.9532 138.198 8.44369C138.198 3.79913 141.449 0.290283 147.888 0.290283C150.966 0.290283 154.107 1.03613 155.049 1.18868L153.699 8.49455H152.222C152.662 4.9857 151.013 2.07013 147.354 2.07013C144.449 2.07013 141.967 3.52792 141.967 6.95201C141.967 15.1563 155.567 14.3596 155.567 24.4454C155.567 30.0731 151.092 32.7005 145.878 32.7005C142.093 32.7005 137.492 31.2936 137.492 27.8695C137.523 27.1237 137.696 26.4795 138.512 23.6657Z" fill="white"/>
<path d="M183.945 23.6657H185.421C185.421 29.3781 188.766 30.8868 191.719 30.8868C194.546 30.8868 197.231 29.5815 197.231 25.971C197.231 17.8176 183.631 17.9532 183.631 8.44369C183.631 3.79913 186.882 0.290283 193.321 0.290283C196.399 0.290283 199.54 1.03613 200.482 1.18868L199.131 8.49455H197.655C198.095 4.9857 196.446 2.07013 192.787 2.07013C189.881 2.07013 187.4 3.52792 187.4 6.95201C187.4 15.1563 201 14.3596 201 24.4454C201 30.0731 196.524 32.7005 191.31 32.7005C187.526 32.7005 182.924 31.2936 182.924 27.8695C182.956 27.1237 183.128 26.4795 183.945 23.6657Z" fill="white"/>
</svg>
