<?xml version="1.0" encoding="utf-8"?>
<!-- Generator: Adobe Illustrator 21.0.0, SVG Export Plug-In . SVG Version: 6.00 Build 0)  -->
<svg version="1.1" id="Layer_1" xmlns="http://www.w3.org/2000/svg" xmlns:xlink="http://www.w3.org/1999/xlink" x="0px" y="0px"
	 viewBox="0 0 1282 263" style="enable-background:new 0 0 1282 263;" xml:space="preserve">
<style type="text/css">
	.st0{fill:#FFFFFF;}
	.st1{fill:#001C37;}
	.st2{fill:#007AFF;}
	.st3{fill:#FF5B00;}
</style>
<g>
	<g>
		<g>
			<path class="st1" d="M1091.5,230.8V169l-6.4,5.7l-6,5.4l-5.3-6l-6.6-7.5v64.3c0,9.4-7.7,15.8-19.9,17.1v8.9l68-1.7l1.1-7.7
				l-26.3-2.5C1090.1,245,1091.5,238.9,1091.5,230.8z"/>
			<g>
				<polygon class="st2" points="1084.7,114 989.4,66.5 1067.2,154.4 1079.8,168.7 1091.5,158.2 1268.3,0.2 				"/>
			</g>
		</g>
		<g>
			<circle class="st3" cx="1080.7" cy="78.8" r="16"/>
		</g>
	</g>
	<g>
		<path class="st1" d="M133.3,125.1L90.7,259.8L80,256.4L16.3,94.9C11.6,83,0,79.7,0,79.7v-6.9h16.9c17.4,0,28.5-1.1,28.5-1.1
			l1.1,1.1c-3,6.6-4.7,17.4-1.7,25.4L84.7,205c1.9,5.3,3.9,12.4,5.3,17.7l36.5-115.1l-4.7-12.7C117,83,105.4,79.7,105.4,79.7v-6.9
			h16.9c17.4,0,28.5-1.1,28.5-1.1l1.1,1.1c-3,6.6-4.7,17.4-1.7,25.4l39,107.3c1.7,5,3.6,11.6,5,16.9l37.6-118.7
			c4.1-13,1.1-19.9-13.3-24.1v-6.9h42l1.1,3.9c0,0-9.7,5-18,29.6L195,259.8l-10.8-3.3L133.3,125.1z"/>
		<path class="st1" d="M378.4,69.5c57.8,0,94.6,39,94.6,89.1c0,52.8-40.4,102.1-101.5,102.1c-56.7,0-93.5-42.9-93.5-93.2
			C278,117.6,313.7,69.5,378.4,69.5z M377,249.5c43.4,0,68.6-43.7,68.6-84.1c0-41.5-26-84.9-71.9-84.9c-43.1,0-68.3,39-68.3,79.7
			C305.4,201.4,331.4,249.5,377,249.5z"/>
		<path class="st1" d="M498.4,249.2c12.2-1.4,19.9-7.7,19.9-17.1V99.9c0-13.3-1.4-16-22.7-20.2v-6.9h64.2
			c49.8,0,68.6,20.5,68.6,44.5c0,26-23.2,43.7-36.5,50.6v3.6l39.8,58.4c11.9,17.1,17.4,17.7,24.6,18.3l3,0.3l-1.1,8.9h-40.1
			l-1.1-0.8c0,0-5.8-13.8-17.1-30.4l-34.3-50.6h-20.2l-2.8,2.8v53.9c0,8-1.4,14.1-1.4,14.1l24.9,2.5l-1.1,7.7l-66.7,1.7V249.2z
			 M565.9,164.6c16.6,0,35.7-13.3,35.7-40.1c0-21-11.9-40.9-45.9-40.9h-10.2l-2.8,2.8v78.3H565.9z"/>
		<path class="st1" d="M672.1,249.2c12.4-1.4,19.9-7.2,19.9-17.1V99.9c0-13.3-1.4-16-22.7-20.2v-6.9h75.8
			c53.7,0,105.4,20.2,105.4,85.5c0,62.5-46.7,99-115.9,99h-22.4c-13.8,0-40.1,0.8-40.1,0.8V249.2z M734.6,246.5
			c64.7,0,88.5-36,88.5-81.9c0-49-27.4-81-79.1-81h-24.9l-2.8,2.8V231c0,8.3-1.4,15.5-1.4,15.5H734.6z"/>
		<path class="st1" d="M882,207.5h9.4c0,33.7,21.3,42.6,40.1,42.6c18,0,35.1-7.7,35.1-29c0-48.1-86.6-47.3-86.6-103.4
			c0-27.4,20.7-48.1,61.7-48.1c19.6,0,39.6,4.4,45.6,5.3l-8.6,43.1h-9.4c2.8-20.7-7.7-37.9-31-37.9c-18.5,0-34.3,8.6-34.3,28.8
			c0,48.4,86.6,43.7,86.6,103.2c0,33.2-28.5,48.7-61.7,48.7c-24.1,0-53.4-8.3-53.4-28.5C875.7,227.9,876.8,224.1,882,207.5z"/>
		<path class="st1" d="M1171.3,207.5h9.4c0,33.7,21.3,42.6,40.1,42.6c18,0,35.1-7.7,35.1-29c0-48.1-86.6-47.3-86.6-103.4
			c0-27.4,20.7-48.1,61.7-48.1c19.6,0,39.6,4.4,45.6,5.3l-8.6,43.1h-9.4c2.8-20.7-7.7-37.9-31-37.9c-18.5,0-34.3,8.6-34.3,28.8
			c0,48.4,86.6,43.7,86.6,103.2c0,33.2-28.5,48.7-61.7,48.7c-24.1,0-53.4-8.3-53.4-28.5C1165,227.9,1166.1,224.1,1171.3,207.5z"/>
	</g>
</g>
</svg>
